<?xml version="1.0" encoding="utf-8"?>
<!-- Generator: Adobe Illustrator 16.0.0, SVG Export Plug-In . SVG Version: 6.00 Build 0)  -->
<!DOCTYPE svg PUBLIC "-//W3C//DTD SVG 1.1//EN" "http://www.w3.org/Graphics/SVG/1.1/DTD/svg11.dtd">
<svg version="1.1" xmlns="http://www.w3.org/2000/svg" xmlns:xlink="http://www.w3.org/1999/xlink" x="0px" y="0px" width="136px"
	 height="136px" viewBox="0 0 136 136" enable-background="new 0 0 136 136" xml:space="preserve">
<g id="圖層_2">
</g>
<g id="圖層_1">
	<g>
		<g>
			<path fill="#FFFFFF" d="M19.213,64.932c-8.604,0-12.697-7.455-13.659-11.396C5.519,53.389,5.5,53.24,5.5,53.09V40.687
				c0-4.958,4.021-7.187,6.724-7.187H29.25c1.035,0,1.875,0.964,1.875,2s-0.84,2-1.875,2H12.24c-0.676,0-2.74,0.418-2.74,3.187
				v12.154c0,1.305,2.623,8.341,9.838,8.341c1.036,0,1.812,0.839,1.812,1.875C21.15,64.092,20.249,64.932,19.213,64.932z"/>
		</g>
		<g>
			<path fill="#FFFFFF" d="M57.705,99.979c-0.377,0-0.758-0.114-1.088-0.35c-0.785-0.561-19.532-13.786-24.882-19.136
				c-3.659-3.66-4.235-6.422-4.235-13.382V19.285C27.5,12.526,33.391,7.5,40.818,7.5h53.946c7.545,0,12.735,5.135,12.735,11.785
				v47.828c0,7.005-0.328,9.765-3.944,13.382c-3.057,3.057-10.289,8.625-15.558,12.549c-0.83,0.617-1.942,0.446-2.562-0.385
				c-0.618-0.83-0.415-2.006,0.415-2.623c2.982-2.221,12.195-8.977,15.412-12.193c2.469-2.47,3.236-3.846,3.236-10.729V19.285
				c0-3.933-3.508-7.785-9.735-7.785H40.818c-5.339,0-9.318,3.125-9.318,7.785v47.828c0,6.816,0.503,8.22,3.013,10.729
				c5.131,5.132,24.031,18.602,24.221,18.736c0.843,0.602,1.069,1.773,0.468,2.615C58.835,99.706,58.29,99.979,57.705,99.979z"/>
		</g>
		<g>
			<path fill="#FFFFFF" d="M116.786,64.932c-1.036,0-1.875-0.839-1.875-1.875c0-1.036,0.839-1.875,1.875-1.875
				c3.261,0,5.802-1.413,7.797-4.2c1.269-1.771,1.917-3.57,1.917-4.146V40.687c0-2.954-2.822-3.187-3.172-3.187H106.75
				c-1.036,0-1.875-0.964-1.875-2s0.839-2,1.875-2h16.593c2.886,0,7.157,2.228,7.157,7.187V53.09c0,0.15-0.018,0.299-0.054,0.445
				C129.483,57.477,125.391,64.932,116.786,64.932z"/>
		</g>
		<g>
			<path fill="#FFFFFF" d="M55.242,73.016c-1.387,0-2.707-0.679-3.532-1.815c-0.815-1.12-1.033-2.53-0.599-3.869l3.709-11.415
				l-9.71-7.054c-1.547-1.125-2.164-3.026-1.573-4.845s2.208-2.994,4.12-2.994H59.66l3.709-11.414
				c0.589-1.819,2.207-2.995,4.119-2.995s3.53,1.175,4.122,2.994l3.709,11.415H87.32c1.912,0,3.53,1.175,4.121,2.994
				s-0.027,3.721-1.575,4.845l-9.709,7.053l3.71,11.415c0.434,1.337,0.217,2.747-0.598,3.868c-0.825,1.137-2.146,1.816-3.533,1.816
				c-0.905,0-1.783-0.291-2.538-0.839l-9.71-7.055l-9.709,7.054C57.025,72.725,56.147,73.016,55.242,73.016z M47.657,44.774
				c-0.35,0-0.494,0.219-0.554,0.403c-0.06,0.184-0.071,0.446,0.212,0.652l10.812,7.854c0.656,0.477,0.932,1.323,0.682,2.096
				l-4.13,12.71c-0.064,0.197-0.044,0.358,0.064,0.506c0.188,0.26,0.536,0.362,0.831,0.146l10.812-7.855
				c0.657-0.477,1.546-0.477,2.204,0l10.812,7.855c0.298,0.217,0.645,0.112,0.833-0.147c0.108-0.148,0.129-0.309,0.064-0.505
				l-4.13-12.71c-0.251-0.772,0.024-1.619,0.682-2.096l10.811-7.855c0.284-0.206,0.272-0.468,0.213-0.652s-0.205-0.403-0.555-0.403
				H73.957c-0.812,0-1.532-0.523-1.783-1.295l-4.13-12.71c-0.108-0.333-0.362-0.403-0.556-0.403c-0.192,0-0.444,0.07-0.553,0.402
				l-4.13,12.711c-0.251,0.772-0.971,1.295-1.783,1.295H47.657z"/>
		</g>
		<g>
			<path fill="#FFFFFF" d="M94.203,128.38H39.908c-5.129,0-9.301-4.174-9.301-9.303c0-5.128,4.172-9.3,9.301-9.3h13.786
				c-0.099-0.66-0.148-1.329-0.148-2.003c0-7.45,6.061-13.51,13.509-13.51c7.45,0,13.511,6.06,13.511,13.51
				c0,0.674-0.05,1.342-0.148,2.003h13.786c5.128,0,9.301,4.172,9.301,9.3C103.504,124.206,99.331,128.38,94.203,128.38z
				 M39.908,113.527c-3.061,0-5.551,2.49-5.551,5.55c0,3.062,2.49,5.553,5.551,5.553h54.295c3.061,0,5.551-2.49,5.551-5.553
				c0-3.06-2.49-5.55-5.551-5.55H78.025c-0.608,0-1.18-0.295-1.53-0.792c-0.352-0.497-0.44-1.134-0.237-1.708
				c0.37-1.046,0.558-2.14,0.558-3.253c0-5.382-4.379-9.76-9.761-9.76c-5.381,0-9.759,4.378-9.759,9.76
				c0,1.114,0.188,2.208,0.557,3.253c0.204,0.574,0.115,1.211-0.236,1.708c-0.351,0.497-0.923,0.792-1.531,0.792H39.908z"/>
		</g>
	</g>
</g>
</svg>
