<?xml version="1.0" encoding="utf-8"?>
<!-- Generator: Adobe Illustrator 16.0.0, SVG Export Plug-In . SVG Version: 6.00 Build 0)  -->
<!DOCTYPE svg PUBLIC "-//W3C//DTD SVG 1.1//EN" "http://www.w3.org/Graphics/SVG/1.1/DTD/svg11.dtd">
<svg version="1.1" id="圖層_1" xmlns="http://www.w3.org/2000/svg" xmlns:xlink="http://www.w3.org/1999/xlink" x="0px" y="0px"
	 width="136px" height="136px" viewBox="0 0 136 136" enable-background="new 0 0 136 136" xml:space="preserve">
<g>
	<g>
		<g>
			<path fill="#FFFFFF" d="M50.271,116.404c-1.027,0-1.859-0.832-1.859-1.859v-11.052C28.007,95.44,14.389,75.559,14.389,53.61
				C14.389,24.05,38.439,0,68,0c29.562,0,53.611,24.05,53.611,53.61c0,19.228-10.389,37.089-27.113,46.614
				c-0.891,0.511-2.027,0.197-2.535-0.695c-0.509-0.892-0.197-2.027,0.695-2.535c15.564-8.866,25.234-25.489,25.234-43.384
				C117.893,26.1,95.512,3.719,68,3.719c-27.511,0-49.892,22.381-49.892,49.892c0,20.83,13.183,39.659,32.803,46.856
				c0.732,0.269,1.219,0.965,1.219,1.745v12.333C52.13,115.572,51.297,116.404,50.271,116.404z"/>
		</g>
		<g>
			
				<path fill="#FFFFFF" stroke="#231815" stroke-width="6" stroke-linecap="round" stroke-linejoin="round" stroke-miterlimit="10" d="
				M50.271,102.774"/>
		</g>
		<g>
			<path fill="#FFFFFF" d="M68.37,66.047c-6.158,0-11.168-5.011-11.168-11.169S62.212,43.71,68.37,43.71
				c6.157,0,11.167,5.01,11.167,11.168S74.527,66.047,68.37,66.047z M68.37,47.429c-4.108,0-7.45,3.342-7.45,7.449
				c0,4.108,3.342,7.45,7.45,7.45c4.107,0,7.449-3.342,7.449-7.45C75.819,50.771,72.478,47.429,68.37,47.429z"/>
		</g>
		<g>
			<path fill="#FFFFFF" d="M79.219,130.215H57.281c-4.891,0-8.87-3.979-8.87-8.869v-8.751c0-1.026,0.833-1.858,1.859-1.858h35.958
				c1.027,0,1.859,0.832,1.859,1.858v8.751C88.088,126.236,84.109,130.215,79.219,130.215z M52.13,114.454v6.892
				c0,2.84,2.311,5.15,5.151,5.15h21.938c2.84,0,5.151-2.311,5.151-5.15v-6.892H52.13z"/>
		</g>
		<g>
			<path fill="#FFFFFF" d="M68.615,114.351c-1.026,0-1.859-0.832-1.859-1.859v-10.948c0-1.027,0.833-1.859,1.859-1.859
				c1.027,0,1.859,0.832,1.859,1.859v10.948C70.475,113.519,69.643,114.351,68.615,114.351z"/>
		</g>
		<g>
			<path fill="#FFFFFF" d="M79.219,130.215H57.281c-4.891,0-8.87-3.979-8.87-8.869v-8.751c0-1.026,0.833-1.858,1.859-1.858h35.958
				c1.027,0,1.859,0.832,1.859,1.858v8.751C88.088,126.236,84.109,130.215,79.219,130.215z M52.13,114.454v6.892
				c0,2.84,2.311,5.15,5.151,5.15h21.938c2.84,0,5.151-2.311,5.151-5.15v-6.892H52.13z"/>
		</g>
		<g>
			<path fill="#FFFFFF" d="M74.547,136H62.099c-3.218,0-5.837-2.619-5.837-5.839c0-1.026,0.833-1.859,1.859-1.859h20.404
				c1.027,0,1.859,0.833,1.859,1.859C80.385,133.381,77.766,136,74.547,136z M61.083,132.021c0.302,0.166,0.648,0.261,1.016,0.261
				h12.448c0.369,0,0.715-0.095,1.018-0.261H61.083z"/>
		</g>
	</g>
	<g>
		<path fill="#FFFFFF" d="M74.289,85.12h-11.46c-0.914,0-1.692-0.663-1.836-1.565l-0.839-5.248
			c-2.879-1.024-5.576-2.583-7.905-4.571l-4.969,1.9c-0.854,0.327-1.817-0.017-2.274-0.807l-5.73-9.924
			c-0.457-0.791-0.271-1.797,0.438-2.373l4.126-3.351c-0.276-1.506-0.416-3.037-0.416-4.565c0-1.531,0.14-3.062,0.416-4.568
			l-4.126-3.352c-0.709-0.576-0.895-1.582-0.438-2.373l5.73-9.925c0.457-0.791,1.42-1.133,2.274-0.807l4.97,1.9
			c2.331-1.988,5.028-3.547,7.905-4.569l0.839-5.248c0.144-0.902,0.922-1.566,1.836-1.566h11.459c0.913,0,1.691,0.664,1.835,1.565
			l0.841,5.249c2.876,1.023,5.572,2.582,7.904,4.569l4.971-1.9c0.853-0.326,1.817,0.016,2.274,0.808l5.729,9.925
			c0.457,0.791,0.271,1.796-0.438,2.372l-4.126,3.352c0.276,1.497,0.415,3.028,0.415,4.568c0,1.538-0.139,3.069-0.415,4.566
			l4.126,3.35c0.708,0.576,0.895,1.581,0.438,2.373l-5.729,9.924c-0.457,0.791-1.422,1.134-2.274,0.807l-4.97-1.9
			c-2.33,1.988-5.027,3.548-7.904,4.571l-0.841,5.248C75.98,84.457,75.201,85.12,74.289,85.12z M64.415,81.401h8.289l0.769-4.8
			c0.112-0.703,0.616-1.28,1.297-1.486c3.126-0.946,6.044-2.633,8.433-4.877c0.52-0.486,1.271-0.637,1.938-0.38l4.547,1.738
			l4.143-7.178l-3.773-3.063c-0.553-0.449-0.8-1.174-0.638-1.867c0.37-1.582,0.558-3.222,0.558-4.872
			c0-1.652-0.188-3.292-0.558-4.874c-0.162-0.693,0.085-1.418,0.638-1.867l3.773-3.065l-4.143-7.178l-4.547,1.738
			c-0.666,0.254-1.418,0.106-1.936-0.381c-2.395-2.244-5.312-3.93-8.435-4.875c-0.682-0.206-1.186-0.783-1.298-1.485l-0.769-4.802
			h-8.288l-0.768,4.802c-0.112,0.702-0.616,1.279-1.298,1.485c-3.125,0.945-6.042,2.631-8.434,4.875
			c-0.519,0.487-1.271,0.634-1.936,0.381l-4.546-1.738l-4.145,7.178l3.773,3.065c0.551,0.447,0.799,1.171,0.639,1.863
			c-0.37,1.596-0.558,3.237-0.558,4.878c0,1.638,0.188,3.278,0.558,4.876c0.161,0.692-0.087,1.415-0.639,1.863l-3.773,3.063
			l4.145,7.178l4.546-1.738c0.666-0.256,1.417-0.107,1.937,0.38c2.39,2.244,5.307,3.93,8.434,4.877
			c0.681,0.206,1.185,0.783,1.297,1.486L64.415,81.401z M68.559,65.429c-5.963,0-10.815-4.851-10.815-10.812
			c0-5.964,4.852-10.815,10.815-10.815c5.963,0,10.814,4.852,10.814,10.815C79.373,60.578,74.521,65.429,68.559,65.429z
			 M68.559,47.52c-3.913,0-7.096,3.184-7.096,7.097c0,3.912,3.184,7.095,7.096,7.095c3.913,0,7.096-3.183,7.096-7.095
			C75.654,50.703,72.472,47.52,68.559,47.52z"/>
	</g>
</g>
</svg>
