<?xml version="1.0" encoding="utf-8"?>
<!-- Generator: Adobe Illustrator 16.0.0, SVG Export Plug-In . SVG Version: 6.00 Build 0)  -->
<!DOCTYPE svg PUBLIC "-//W3C//DTD SVG 1.1//EN" "http://www.w3.org/Graphics/SVG/1.1/DTD/svg11.dtd">
<svg version="1.1" id="圖層_1" xmlns="http://www.w3.org/2000/svg" xmlns:xlink="http://www.w3.org/1999/xlink" x="0px" y="0px"
	 width="136px" height="136px" viewBox="0 0 136 136" enable-background="new 0 0 136 136" xml:space="preserve">
<g>
	<g>
		<path fill="#FFFFFF" d="M73.744,68.437h-9.181c0.035-1.102,1.73-2.263,3.691-3.604c3.371-2.307,7.564-5.178,7.564-10.166
			c0-5.134-4.561-7.903-8.85-7.903c-4.167,0-8.596,2.579-8.596,7.357c0,2.197,0.98,3.312,2.914,3.312
			c2.175,0,3.348-1.257,3.348-2.438c0-1.959,1.289-2.369,2.37-2.369c1.775,0,2.406,1.196,2.406,2.223
			c0,2.008-2.493,3.837-5.133,5.775c-3.117,2.289-6.341,4.654-6.341,7.849v3.531c0,1.31,1.654,2.113,2.84,2.113h12.968
			c1.105,0,2.074-1.344,2.074-2.876C75.818,69.721,74.867,68.437,73.744,68.437"/>
	</g>
	<g>
		<path fill="#FFFFFF" d="M93.158,62.535h-1.205v-2.188c0-1.26-1.258-2.075-3.203-2.075s-3.205,0.815-3.205,2.075v2.188h-2.184
			l6.195-12.426c0.109-0.256,0.211-0.533,0.211-0.835c0-1.559-2.074-2.512-3.203-2.512c-1.184,0-2.139,0.587-2.689,1.654
			l-8.41,16.492c-0.293,0.535-0.336,1.023-0.336,1.267c0,1.394,0.906,2.329,2.256,2.329h8.162v3.498c0,1.451,1.66,2.111,3.203,2.111
			s3.203-0.66,3.203-2.111v-3.498h1.205c1.084,0,2.111-1.45,2.111-2.985C95.268,64.082,94.607,62.535,93.158,62.535"/>
	</g>
	<g>
		<path fill="#FFFFFF" d="M104.602,110.138c-0.602,0-1.193-0.279-1.57-0.805c-0.621-0.865-0.424-2.071,0.443-2.693
			c14.047-10.081,22.434-26.407,22.434-43.674c0-29.62-24.098-53.718-53.719-53.718c-13.086,0-25.696,4.761-35.502,13.404
			c-0.801,0.705-2.021,0.628-2.724-0.171c-0.705-0.8-0.629-2.02,0.171-2.725C44.647,10.491,58.162,5.389,72.189,5.389
			c31.75,0,57.578,25.829,57.578,57.577c0,18.507-8.988,36.006-24.043,46.811C105.385,110.021,104.99,110.138,104.602,110.138z"/>
	</g>
	<g>
		<path fill="#FFFFFF" d="M109.227,83.741c-0.305,0-0.615-0.073-0.902-0.227c-0.941-0.5-1.299-1.669-0.799-2.609
			c2.977-5.606,4.551-11.948,4.551-18.341c0-21.595-17.568-39.163-39.162-39.163c-13.72,0-26.204,6.988-33.395,18.693
			c-0.559,0.908-1.748,1.191-2.655,0.635c-0.908-0.558-1.192-1.747-0.634-2.654c7.898-12.857,21.612-20.533,36.684-20.533
			c23.723,0,43.021,19.3,43.021,43.022c0,7.021-1.729,13.99-5.002,20.151C110.586,83.368,109.918,83.741,109.227,83.741z"/>
	</g>
	<g>
		<path fill="#FFFFFF" d="M87.494,130.611L87.494,130.611c-5.812,0-11.061-1.697-14.504-2.975
			c-9.68-3.587-18.617-8.942-28.125-16.849c-3.408-2.854-6.654-5.934-9.654-9.157c-3.221-2.998-6.3-6.243-9.151-9.647
			c-7.91-9.511-13.264-18.447-16.854-28.13c-1.498-4.038-3.428-10.18-2.879-16.855c0.388-4.374,2.152-8.155,5.246-11.249
			l2.849-2.913c0.002-0.002,0.046-0.047,0.048-0.049c2.567-2.466,5.569-3.75,8.719-3.75c3.143,0,6.104,1.283,8.568,3.709
			c1.444,1.336,2.831,2.746,4.114,4.071c0.617,0.659,1.266,1.308,1.893,1.936l5.99,5.99c5.286,5.286,5.286,12.389,0,17.676
			c-0.288,0.29-0.579,0.585-0.869,0.88c-0.315,0.32-0.631,0.642-0.946,0.957l-0.486,0.493c-1.138,1.154-2.306,2.339-3.537,3.511
			c1.201,2.374,2.779,4.759,4.994,7.561c2.648,3.252,14.864,15.468,18.137,18.131c2.778,2.198,5.16,3.774,7.538,4.977
			c1.199-1.259,2.41-2.452,3.59-3.614l0.426-0.419c0.314-0.315,0.645-0.642,0.977-0.967c0.285-0.28,0.57-0.561,0.85-0.841
			c2.594-2.593,5.65-3.965,8.836-3.965c3.188,0,6.244,1.372,8.838,3.966l6.094,6.094c0.594,0.592,1.201,1.199,1.811,1.769
			c1.344,1.3,2.752,2.684,4.094,4.137c2.428,2.462,3.709,5.424,3.709,8.568c0,3.149-1.283,6.151-3.713,8.681
			c-0.012,0.013-0.068,0.068-0.08,0.081l-2.934,2.868c-3.08,3.079-6.861,4.844-11.223,5.23
			C89.076,130.579,88.285,130.611,87.494,130.611z M23.189,32.897c-2.133,0-4.211,0.912-6.008,2.637l-2.862,2.929
			c-2.451,2.451-3.841,5.429-4.146,8.863c-0.484,5.897,1.282,11.492,2.652,15.186c3.434,9.261,8.58,17.84,16.197,26.998
			c2.76,3.294,5.745,6.439,8.868,9.343c0.035,0.031,0.067,0.065,0.1,0.1c2.904,3.124,6.05,6.109,9.349,8.872
			c9.156,7.615,17.734,12.763,26.993,16.193c3.164,1.174,7.971,2.734,13.162,2.734l0,0c0.688,0,1.371-0.028,2.035-0.083
			c3.422-0.303,6.4-1.692,8.836-4.128l2.943-2.879c1.727-1.797,2.639-3.874,2.639-6.007c0-2.116-0.904-4.148-2.617-5.878
			c-0.016-0.016-0.031-0.031-0.045-0.048c-1.285-1.392-2.654-2.737-3.943-3.983c-0.613-0.575-1.252-1.211-1.873-1.831l-6.098-6.098
			c-1.855-1.854-3.967-2.835-6.109-2.835c-2.141,0-4.252,0.98-6.107,2.835c-0.289,0.288-0.58,0.575-0.871,0.861
			c-0.322,0.317-0.646,0.636-0.963,0.953l-0.438,0.432c-1.469,1.445-2.986,2.939-4.43,4.519c-0.564,0.615-1.459,0.801-2.22,0.456
			c-3.102-1.402-6.062-3.276-9.603-6.076c-3.49-2.841-15.906-15.256-18.731-18.727c-2.82-3.567-4.694-6.529-6.093-9.625
			c-0.345-0.761-0.16-1.655,0.455-2.219c1.552-1.419,3.021-2.91,4.442-4.353l0.498-0.505c0.317-0.316,0.624-0.629,0.932-0.941
			c0.297-0.303,0.595-0.604,0.892-0.902c3.768-3.769,3.768-8.45,0.001-12.218l-5.993-5.992c-0.648-0.649-1.318-1.32-1.955-2
			c-1.23-1.271-2.58-2.644-3.963-3.921c-0.016-0.016-0.032-0.03-0.047-0.046C27.336,33.803,25.304,32.897,23.189,32.897z"/>
	</g>
</g>
</svg>
