<svg xmlns="http://www.w3.org/2000/svg" width="280.053" height="38.203" viewBox="0 0 280.053 38.203">
  <g id="グループ_272" data-name="グループ 272" transform="translate(16477.139 -431.357)">
    <path id="パス_31" data-name="パス 31" d="M178.293,37.8h14.639V31.645H178.293V21.329h16.746V15.287H171.585v38.2h24.009V47.446h-17.3Z" transform="translate(-16507.818 416.069)" fill="#1a1311"/>
    <path id="パス_32" data-name="パス 32" d="M191.55,21.33h10.924V53.49h6.764V21.33h10.923V15.288H191.55Z" transform="translate(-16491.934 416.069)" fill="#1a1311"/>
    <path id="パス_33" data-name="パス 33" d="M224.193,15.288l-14.361,38.2h7.209l3.272-9.369h15.025l3.327,9.369h7.152l-14.305-38.2Zm-1.83,22.955,5.489-15.525,5.435,15.525Z" transform="translate(-16477.389 416.07)" fill="#1a1311"/>
    <path id="パス_34" data-name="パス 34" d="M243.113,47.447V15.288h-6.764v38.2h22.858V47.447Z" transform="translate(-16456.293 416.069)" fill="#1a1311"/>
    <path id="パス_35" data-name="パス 35" d="M171.8,15.288h-.029L159.406,41.57l-12.42-26.282h-6.611v38.2h6.611V29.238l9.7,19.927h5.491l9.59-19.856V53.491h6.613v-38.2Z" transform="translate(-16532.648 416.069)" fill="#1a1311"/>
    <path id="パス_36" data-name="パス 36" d="M93.112,15.288v38.2h6.674v-38.2Z" transform="translate(-16570.25 416.069)" fill="#1a1311"/>
    <path id="パス_37" data-name="パス 37" d="M123.831,15.288h-9.141L96.829,34.376l17.884,19.114h9.141L105.97,34.376Z" transform="translate(-16567.293 416.069)" fill="#1a1311"/>
    <path id="パス_38" data-name="パス 38" d="M133.291,15.288,119.506,30.02,131.42,42.755,121.376,53.491h9.141l10.045-10.736L128.648,30.02l13.785-14.733Z" transform="translate(-16549.25 416.069)" fill="#1a1311"/>
    <path id="パス_39" data-name="パス 39" d="M119.028,15.288,114.4,20.229l4.57,4.886,9.2-9.827Z" transform="translate(-16553.311 416.069)" fill="#1a1311"/>
  </g>
</svg>
