<svg xmlns="http://www.w3.org/2000/svg" width="281.263" height="54.051" viewBox="0 0 281.263 54.051">
  <g id="グループ_273" data-name="グループ 273" transform="translate(16476.648 -493.178)">
    <path id="パス_40" data-name="パス 40" d="M105.22,53.714a5.858,5.858,0,0,0-5.455.172,5.553,5.553,0,0,0-2.092,2.1,6.053,6.053,0,0,0,0,5.884,5.642,5.642,0,0,0,2.092,2.119,5.715,5.715,0,0,0,2.93.777,6.165,6.165,0,0,0,2.474-.544,7.139,7.139,0,0,0,2.2-1.5l1.945,2.167a10.182,10.182,0,0,1-3.151,2.176,8.858,8.858,0,0,1-3.645.8,9.04,9.04,0,0,1-4.555-1.18,8.659,8.659,0,0,1-3.248-3.216,8.756,8.756,0,0,1-1.183-4.491A8.569,8.569,0,0,1,94.743,54.5a8.7,8.7,0,0,1,3.288-3.176,9.544,9.544,0,0,1,8.235-.418,8.9,8.9,0,0,1,3.029,2.043l-1.919,2.413a6.517,6.517,0,0,0-2.155-1.65" transform="translate(-16569.912 443.821)" fill="#1a1311"/>
    <path id="パス_41" data-name="パス 41" d="M116.04,56.057a5.15,5.15,0,0,1,1.305,3.7v8.224h-3.225V60.7a2.969,2.969,0,0,0-.788-2.18,2.874,2.874,0,0,0-2.142-.8,3.281,3.281,0,0,0-2.534,1.083,3.931,3.931,0,0,0-.939,2.71v6.473h-3.2V49.717h3.2v7.608a5,5,0,0,1,4.753-2.636,4.7,4.7,0,0,1,3.57,1.368" transform="translate(-16561.176 443.461)" fill="#1a1311"/>
    <path id="パス_42" data-name="パス 42" d="M122.612,65.782v-1.6a4.317,4.317,0,0,1-1.772,1.3,6.56,6.56,0,0,1-2.489.443,5.263,5.263,0,0,1-2.424-.531,3.868,3.868,0,0,1-1.612-1.463,3.963,3.963,0,0,1-.567-2.094,3.5,3.5,0,0,1,1.305-2.891,5.876,5.876,0,0,1,3.694-1.074h3.841v-.341a2.214,2.214,0,0,0-.763-1.8,3.363,3.363,0,0,0-2.214-.643,7.635,7.635,0,0,0-3.918,1.232l-1.155-2.214a14.539,14.539,0,0,1,2.817-1.244,10.309,10.309,0,0,1,2.966-.382,5.872,5.872,0,0,1,3.977,1.232,4.4,4.4,0,0,1,1.44,3.448l.025,8.615Zm-1.133-2.966a2.268,2.268,0,0,0,1.108-1.612V60.021h-3.322a3.607,3.607,0,0,0-1.885.382,1.359,1.359,0,0,0-.6,1.241,1.6,1.6,0,0,0,.628,1.331,2.687,2.687,0,0,0,1.711.492,4.188,4.188,0,0,0,2.363-.652" transform="translate(-16553.834 445.665)" fill="#1a1311"/>
    <rect id="長方形_8" data-name="長方形 8" width="3.2" height="18.268" transform="translate(-16423.123 493.179)" fill="#1a1311"/>
    <rect id="長方形_9" data-name="長方形 9" width="3.2" height="18.268" transform="translate(-16414.455 493.179)" fill="#1a1311"/>
    <path id="パス_43" data-name="パス 43" d="M143.543,54.3a7.374,7.374,0,0,1,1.587,5.047c0,.427-.009.747-.023.961H135.38a3.667,3.667,0,0,0,3.767,3,4.992,4.992,0,0,0,1.932-.382,4.683,4.683,0,0,0,1.612-1.1l1.726,1.8a6.672,6.672,0,0,1-2.4,1.675,8.077,8.077,0,0,1-3.137.591,7.317,7.317,0,0,1-3.561-.839,5.84,5.84,0,0,1-2.374-2.349,7.63,7.63,0,0,1,.013-6.979,6.011,6.011,0,0,1,2.374-2.377A7.032,7.032,0,0,1,138.8,52.5a5.993,5.993,0,0,1,4.74,1.8M142.2,58.165a3.185,3.185,0,0,0-.961-2.315,3.743,3.743,0,0,0-4.764-.013,3.752,3.752,0,0,0-1.167,2.327Z" transform="translate(-16539.229 445.675)" fill="#1a1311"/>
    <path id="パス_44" data-name="パス 44" d="M153.079,53.854a5.15,5.15,0,0,1,1.305,3.7v8.224H151.16V58.5a2.969,2.969,0,0,0-.788-2.18,2.874,2.874,0,0,0-2.142-.8,3.244,3.244,0,0,0-2.521,1.083,3.967,3.967,0,0,0-.926,2.71v6.473h-3.2V52.612h3.2v2.462a5,5,0,0,1,4.728-2.587,4.7,4.7,0,0,1,3.57,1.368" transform="translate(-16531.688 445.664)" fill="#1a1311"/>
    <path id="パス_45" data-name="パス 45" d="M163.973,52.6V64.516a6.124,6.124,0,0,1-.851,3.263,5.565,5.565,0,0,1-2.411,2.142,8.3,8.3,0,0,1-3.632.751,9.673,9.673,0,0,1-5.565-1.747l1.28-2.315a6.777,6.777,0,0,0,4.112,1.377,4.145,4.145,0,0,0,2.819-.91,3.122,3.122,0,0,0,1.049-2.487V63.04a4.4,4.4,0,0,1-1.726,1.537,5.4,5.4,0,0,1-2.462.53,5.825,5.825,0,0,1-3.052-.8,5.448,5.448,0,0,1-2.067-2.241,7.138,7.138,0,0,1-.742-3.311,6.942,6.942,0,0,1,.742-3.263,5.419,5.419,0,0,1,2.067-2.2,5.887,5.887,0,0,1,3.052-.788,5.374,5.374,0,0,1,2.449.542,4.549,4.549,0,0,1,1.738,1.528V52.6ZM159.8,61.55a4.291,4.291,0,0,0,0-5.442,3.555,3.555,0,0,0-5.047.013,4.2,4.2,0,0,0,0,5.43,3.57,3.57,0,0,0,5.047,0" transform="translate(-16524.414 445.675)" fill="#1a1311"/>
    <path id="パス_46" data-name="パス 46" d="M171.652,54.3a7.374,7.374,0,0,1,1.587,5.047c0,.427-.009.747-.023.961h-9.727a3.667,3.667,0,0,0,3.767,3,4.992,4.992,0,0,0,1.932-.382,4.683,4.683,0,0,0,1.612-1.1l1.726,1.8a6.671,6.671,0,0,1-2.4,1.675,8.077,8.077,0,0,1-3.137.591,7.317,7.317,0,0,1-3.561-.839,5.84,5.84,0,0,1-2.374-2.349,7.63,7.63,0,0,1,.013-6.979,6.011,6.011,0,0,1,2.374-2.377,7.032,7.032,0,0,1,3.473-.851,5.993,5.993,0,0,1,4.74,1.8m-1.343,3.868a3.184,3.184,0,0,0-.961-2.315,3.743,3.743,0,0,0-4.764-.013,3.752,3.752,0,0,0-1.167,2.327Z" transform="translate(-16516.865 445.675)" fill="#1a1311"/>
    <path id="パス_47" data-name="パス 47" d="M182.032,66.279a6.268,6.268,0,0,1-3.3.961,3.949,3.949,0,0,1-2.781-1,3.8,3.8,0,0,1-1.085-2.941V56.8H173.02l-.025-2.34h1.871V50.842h3.176V54.46h3.767V56.8h-3.767v5.934a1.922,1.922,0,0,0,.345,1.293,1.322,1.322,0,0,0,1.036.379,4.6,4.6,0,0,0,1.869-.539Z" transform="translate(-16506.695 444.356)" fill="#1a1311"/>
    <path id="パス_48" data-name="パス 48" d="M190.012,53.339a6.039,6.039,0,0,1,2.437,2.352,6.844,6.844,0,0,1,.874,3.482,6.964,6.964,0,0,1-.874,3.521,6.019,6.019,0,0,1-2.437,2.363,7.508,7.508,0,0,1-3.607.837,7.628,7.628,0,0,1-3.643-.837,6.006,6.006,0,0,1-2.449-2.363,6.964,6.964,0,0,1-.874-3.521,6.844,6.844,0,0,1,.874-3.482,6.026,6.026,0,0,1,2.449-2.352A7.649,7.649,0,0,1,186.4,52.5a7.529,7.529,0,0,1,3.607.839m-6.315,3a4.527,4.527,0,0,0,0,5.76,3.53,3.53,0,0,0,2.708,1.11,3.47,3.47,0,0,0,2.659-1.11,4.527,4.527,0,0,0,0-5.76,3.469,3.469,0,0,0-2.659-1.108,3.529,3.529,0,0,0-2.708,1.108" transform="translate(-16501.57 445.675)" fill="#1a1311"/>
    <path id="パス_49" data-name="パス 49" d="M199.6,55.307A3.371,3.371,0,0,0,197,56.39a3.977,3.977,0,0,0-1,2.807,4.044,4.044,0,0,0,1,2.857,3.359,3.359,0,0,0,2.6,1.083,4.181,4.181,0,0,0,3.546-1.55l1.993,1.65A5.8,5.8,0,0,1,202.8,65.2a7.786,7.786,0,0,1-3.374.689,7,7,0,0,1-3.456-.839,5.864,5.864,0,0,1-2.352-2.349,7.682,7.682,0,0,1,.013-7,5.937,5.937,0,0,1,2.361-2.365,7.108,7.108,0,0,1,3.485-.837,7.876,7.876,0,0,1,3.212.627,5.81,5.81,0,0,1,2.3,1.787l-1.945,1.846a4.457,4.457,0,0,0-3.448-1.453" transform="translate(-16490.957 445.676)" fill="#1a1311"/>
    <path id="パス_50" data-name="パス 50" d="M213.459,56.057a5.15,5.15,0,0,1,1.305,3.7v8.224H211.54V60.7a2.969,2.969,0,0,0-.788-2.18,2.874,2.874,0,0,0-2.142-.8,3.281,3.281,0,0,0-2.534,1.083,3.94,3.94,0,0,0-.939,2.71v6.473h-3.2V49.717h3.2v7.608a5,5,0,0,1,4.753-2.636,4.7,4.7,0,0,1,3.57,1.368" transform="translate(-16483.668 443.461)" fill="#1a1311"/>
    <path id="パス_51" data-name="パス 51" d="M220.032,65.782v-1.6a4.317,4.317,0,0,1-1.772,1.3,6.56,6.56,0,0,1-2.489.443,5.263,5.263,0,0,1-2.424-.531,3.868,3.868,0,0,1-1.612-1.463,3.963,3.963,0,0,1-.567-2.094,3.5,3.5,0,0,1,1.305-2.891,5.876,5.876,0,0,1,3.694-1.074h3.841v-.341a2.214,2.214,0,0,0-.763-1.8,3.363,3.363,0,0,0-2.214-.643,7.635,7.635,0,0,0-3.918,1.232l-1.155-2.214a14.54,14.54,0,0,1,2.817-1.244,10.309,10.309,0,0,1,2.966-.382,5.872,5.872,0,0,1,3.977,1.232,4.4,4.4,0,0,1,1.44,3.448l.025,8.615ZM218.9,62.815a2.268,2.268,0,0,0,1.108-1.612V60.021h-3.322a3.607,3.607,0,0,0-1.885.382,1.359,1.359,0,0,0-.6,1.241,1.6,1.6,0,0,0,.628,1.331,2.687,2.687,0,0,0,1.711.492,4.188,4.188,0,0,0,2.363-.652" transform="translate(-16476.326 445.665)" fill="#1a1311"/>
    <path id="パス_52" data-name="パス 52" d="M232.042,53.854a5.15,5.15,0,0,1,1.305,3.7v8.224h-3.225V58.5a2.969,2.969,0,0,0-.788-2.18,2.875,2.875,0,0,0-2.142-.8,3.244,3.244,0,0,0-2.521,1.083,3.967,3.967,0,0,0-.927,2.71v6.473h-3.2V52.612h3.2v2.462a5,5,0,0,1,4.728-2.587,4.7,4.7,0,0,1,3.57,1.368" transform="translate(-16468.865 445.664)" fill="#1a1311"/>
    <path id="パス_53" data-name="パス 53" d="M242.938,52.6V64.516a6.124,6.124,0,0,1-.851,3.263,5.565,5.565,0,0,1-2.411,2.142,8.3,8.3,0,0,1-3.632.751,9.673,9.673,0,0,1-5.565-1.747l1.28-2.315a6.777,6.777,0,0,0,4.112,1.377,4.144,4.144,0,0,0,2.819-.91,3.122,3.122,0,0,0,1.049-2.487V63.04a4.4,4.4,0,0,1-1.726,1.537,5.4,5.4,0,0,1-2.462.53,5.825,5.825,0,0,1-3.052-.8,5.448,5.448,0,0,1-2.067-2.241,7.139,7.139,0,0,1-.742-3.311,6.942,6.942,0,0,1,.742-3.263,5.419,5.419,0,0,1,2.067-2.2,5.887,5.887,0,0,1,3.052-.788,5.373,5.373,0,0,1,2.449.542,4.549,4.549,0,0,1,1.738,1.528V52.6Zm-4.173,8.949a4.291,4.291,0,0,0,0-5.442,3.555,3.555,0,0,0-5.047.013,4.2,4.2,0,0,0,0,5.43,3.57,3.57,0,0,0,5.047,0" transform="translate(-16461.59 445.675)" fill="#1a1311"/>
    <path id="パス_54" data-name="パス 54" d="M250.616,54.3a7.374,7.374,0,0,1,1.587,5.047c0,.427-.009.747-.023.961h-9.727a3.667,3.667,0,0,0,3.767,3,4.991,4.991,0,0,0,1.932-.382,4.683,4.683,0,0,0,1.612-1.1l1.726,1.8a6.671,6.671,0,0,1-2.4,1.675,8.077,8.077,0,0,1-3.137.591,7.317,7.317,0,0,1-3.561-.839,5.84,5.84,0,0,1-2.374-2.349,7.63,7.63,0,0,1,.013-6.979,6.011,6.011,0,0,1,2.374-2.377,7.032,7.032,0,0,1,3.473-.851,5.993,5.993,0,0,1,4.74,1.8m-1.343,3.868a3.184,3.184,0,0,0-.961-2.315,3.743,3.743,0,0,0-4.764-.013,3.752,3.752,0,0,0-1.167,2.327Z" transform="translate(-16454.041 445.675)" fill="#1a1311"/>
    <path id="パス_55" data-name="パス 55" d="M251.041,58.532a1.73,1.73,0,0,1,.479,1.257,1.8,1.8,0,0,1-.479,1.293,1.613,1.613,0,0,1-1.219.5,1.566,1.566,0,0,1-1.2-.517,1.813,1.813,0,0,1-.479-1.28,1.73,1.73,0,0,1,.479-1.257,1.609,1.609,0,0,1,1.2-.492,1.636,1.636,0,0,1,1.219.492" transform="translate(-16446.906 450.083)" fill="#1a1311"/>
    <path id="パス_56" data-name="パス 56" d="M100.709,75.149a6.389,6.389,0,0,0-1.882-.32,2.537,2.537,0,0,0-1.293.284.945.945,0,0,0-.479.873,1.033,1.033,0,0,0,.6.948,9.52,9.52,0,0,0,1.907.7,18.356,18.356,0,0,1,2.266.826,4.213,4.213,0,0,1,1.539,1.207,3.229,3.229,0,0,1,.654,2.1,3.394,3.394,0,0,1-1.478,2.956,6.344,6.344,0,0,1-3.717,1.032,9.394,9.394,0,0,1-2.981-.481,6.983,6.983,0,0,1-2.462-1.365l1.108-2.241a6.489,6.489,0,0,0,2.117,1.194,7.068,7.068,0,0,0,2.34.429,2.813,2.813,0,0,0,1.415-.307,1,1,0,0,0,.53-.921,1.116,1.116,0,0,0-.614-1.036,10.877,10.877,0,0,0-1.995-.761,16.91,16.91,0,0,1-2.167-.776,3.9,3.9,0,0,1-1.453-1.158,3.166,3.166,0,0,1-.616-2.031,3.437,3.437,0,0,1,1.415-2.968,5.928,5.928,0,0,1,3.557-1.02,9.182,9.182,0,0,1,2.575.368,8.105,8.105,0,0,1,2.253,1.034l-1.158,2.315a9.594,9.594,0,0,0-1.982-.887" transform="translate(-16570.033 461.443)" fill="#1a1311"/>
    <path id="パス_57" data-name="パス 57" d="M104.5,69.789a1.921,1.921,0,0,1,.517,1.379,1.885,1.885,0,0,1-.517,1.354,1.84,1.84,0,0,1-2.609,0,1.885,1.885,0,0,1-.517-1.354,1.921,1.921,0,0,1,.517-1.379,1.84,1.84,0,0,1,2.609,0m-2.878,5.123h3.2V88.083h-3.2Z" transform="translate(-16563.674 458.999)" fill="#1a1311"/>
    <path id="パス_58" data-name="パス 58" d="M117.688,73.7a5.15,5.15,0,0,1,1.305,3.7v8.224h-3.225V78.341a2.969,2.969,0,0,0-.788-2.18,2.874,2.874,0,0,0-2.142-.8,3.244,3.244,0,0,0-2.521,1.083,3.967,3.967,0,0,0-.927,2.71v6.473h-3.2V72.457h3.2v2.462a5,5,0,0,1,4.728-2.587,4.7,4.7,0,0,1,3.57,1.368" transform="translate(-16559.844 461.452)" fill="#1a1311"/>
    <path id="パス_59" data-name="パス 59" d="M122.155,75.152a3.371,3.371,0,0,0-2.6,1.083,3.977,3.977,0,0,0-1,2.806,4.044,4.044,0,0,0,1,2.857,3.359,3.359,0,0,0,2.6,1.083,4.181,4.181,0,0,0,3.546-1.55l1.993,1.65a5.813,5.813,0,0,1-2.338,1.968,7.786,7.786,0,0,1-3.374.69,7,7,0,0,1-3.457-.839,5.864,5.864,0,0,1-2.352-2.349,7.682,7.682,0,0,1,.013-7,5.938,5.938,0,0,1,2.361-2.365,7.108,7.108,0,0,1,3.485-.837,7.875,7.875,0,0,1,3.212.627,5.81,5.81,0,0,1,2.3,1.787L125.6,76.605a4.457,4.457,0,0,0-3.448-1.453" transform="translate(-16552.57 461.464)" fill="#1a1311"/>
    <path id="パス_60" data-name="パス 60" d="M135.193,74.142a7.374,7.374,0,0,1,1.587,5.047c0,.427-.009.747-.023.961H127.03a3.667,3.667,0,0,0,3.767,3,4.992,4.992,0,0,0,1.932-.382,4.683,4.683,0,0,0,1.612-1.1l1.726,1.8a6.671,6.671,0,0,1-2.4,1.675,8.077,8.077,0,0,1-3.137.591,7.317,7.317,0,0,1-3.561-.839,5.84,5.84,0,0,1-2.374-2.349,7.63,7.63,0,0,1,.013-6.979A6.011,6.011,0,0,1,126.98,73.2a7.032,7.032,0,0,1,3.473-.851,5.993,5.993,0,0,1,4.74,1.8M133.85,78.01a3.184,3.184,0,0,0-.961-2.315,3.743,3.743,0,0,0-4.764-.013,3.752,3.752,0,0,0-1.167,2.327Z" transform="translate(-16545.871 461.464)" fill="#1a1311"/>
    <path id="パス_61" data-name="パス 61" d="M149.593,84.558v2.88H136.839V85.05l6.5-6.7a10.441,10.441,0,0,0,1.5-1.848,3.122,3.122,0,0,0,.569-1.575,1.7,1.7,0,0,0-.742-1.465,3.453,3.453,0,0,0-2.042-.53,5.971,5.971,0,0,0-2.411.564,9.272,9.272,0,0,0-2.415,1.578l-1.305-2.537a12.805,12.805,0,0,1,3.214-1.833,9.323,9.323,0,0,1,3.385-.652,7.806,7.806,0,0,1,3.006.54,4.668,4.668,0,0,1,2.029,1.539,3.81,3.81,0,0,1,.727,2.3,5.1,5.1,0,0,1-.862,2.656,18.768,18.768,0,0,1-2.411,3.031L141.2,84.558Z" transform="translate(-16535.736 459.643)" fill="#1a1311"/>
    <path id="パス_62" data-name="パス 62" d="M158.566,72.323q1.92,2.262,1.921,6.5a9.737,9.737,0,0,1-1.921,6.475,7.788,7.788,0,0,1-10.98,0,9.737,9.737,0,0,1-1.919-6.475q0-4.234,1.919-6.5a7.783,7.783,0,0,1,10.98,0m-8.518,1.831a8.641,8.641,0,0,0-.986,4.667,8.635,8.635,0,0,0,.986,4.652,3.8,3.8,0,0,0,6.057,0,8.635,8.635,0,0,0,.986-4.652,8.641,8.641,0,0,0-.986-4.667,3.827,3.827,0,0,0-6.057,0" transform="translate(-16528.438 459.643)" fill="#1a1311"/>
    <path id="パス_63" data-name="パス 63" d="M168.934,72.323q1.918,2.262,1.919,6.5a9.747,9.747,0,0,1-1.919,6.475,7.79,7.79,0,0,1-10.982,0,9.737,9.737,0,0,1-1.919-6.475q0-4.234,1.919-6.5a7.786,7.786,0,0,1,10.982,0m-8.52,1.831a8.64,8.64,0,0,0-.986,4.667,8.634,8.634,0,0,0,.986,4.652,3.8,3.8,0,0,0,6.057,0,8.635,8.635,0,0,0,.986-4.652,8.641,8.641,0,0,0-.986-4.667,3.827,3.827,0,0,0-6.057,0" transform="translate(-16520.191 459.643)" fill="#1a1311"/>
    <path id="パス_64" data-name="パス 64" d="M176.414,77.106a5.221,5.221,0,0,1,2.277,1.86,4.715,4.715,0,0,1,.8,2.7,5.66,5.66,0,0,1-.835,3.076,5.545,5.545,0,0,1-2.365,2.058,8.183,8.183,0,0,1-3.544.725,11.233,11.233,0,0,1-3.385-.555,11.483,11.483,0,0,1-3.115-1.489l1.305-2.587a9.063,9.063,0,0,0,2.361,1.343,7.008,7.008,0,0,0,2.512.479A4.044,4.044,0,0,0,175,83.963a2.481,2.481,0,0,0,.948-2.058,2.278,2.278,0,0,0-.936-1.945,4.685,4.685,0,0,0-2.781-.688q-.886,0-2.341.059c-.966.043-1.715.088-2.239.136v-9.33h11.079v2.88H170.7v3.422h2.289a8.289,8.289,0,0,1,3.422.664" transform="translate(-16512.064 459.708)" fill="#1a1311"/>
  </g>
</svg>
