<?xml version="1.0" standalone="no"?><!DOCTYPE svg PUBLIC "-//W3C//DTD SVG 1.1//EN" "http://www.w3.org/Graphics/SVG/1.1/DTD/svg11.dtd"><svg t="1709801176652" class="icon" viewBox="0 0 1024 1024" version="1.1" xmlns="http://www.w3.org/2000/svg" p-id="10109" width="69" height="69" xmlns:xlink="http://www.w3.org/1999/xlink"><path d="M852.586713 387.111806l0 22.590588 0 34.109868 0 443.68427c0 75.387288-61.11618 136.503469-136.631461 136.503469L306.316855 1024c-75.387288 0-136.631461-61.11618-136.631461-136.503469L169.685395 580.187738 169.685395 409.638398 169.685395 375.528529c0-14.335104 8.831448-26.430348 21.374664-31.550028l139.191301-140.151241C278.542591 198.643585 237.969127 155.510281 237.969127 102.457596c0-56.508468 45.885132-102.3936 102.457596-102.3936l68.283732 0 204.915193 0 68.219736 0c56.63646 0 102.521592 45.885132 102.521592 102.3936 0 51.708768-38.589588 94.07412-88.378476 100.985688l150.838573 151.990501C854.506593 364.585213 855.978501 376.488469 852.586713 387.111806L852.586713 387.111806zM716.019249 102.457596c0-18.814824-15.231048-34.045872-34.109868-34.045872L340.426723 68.411724c-18.814824 0-34.109868 15.231048-34.109868 34.045872s15.231048 34.173864 34.109868 34.173864l341.418661 0C700.724205 136.567465 716.019249 121.27242 716.019249 102.457596L716.019249 102.457596zM784.366977 648.599463 784.366977 477.858134 511.168052 477.858134l0 341.290669 273.198925 0L784.366977 648.599463 784.366977 648.599463zM476.994188 887.432535c-18.814824 0-34.173864-15.231048-34.173864-34.109868L442.820324 443.812262c0-18.814824 15.295044-34.109868 34.173864-34.109868l307.372789 0L784.366977 388.903694 601.530404 204.787201 425.093432 204.787201 237.969127 393.191426l0 16.446972 0 170.549341 0 307.244797c0 37.75764 30.654084 68.219736 68.347728 68.219736l409.638398 0c37.75764 0 68.347728-30.526092 68.347728-68.219736L476.994188 887.432535 476.994188 887.432535zM750.257109 682.709331l-34.23786 0 0 33.981876c0 19.006812-15.231048 34.23786-34.109868 34.23786s-34.109868-15.231048-34.109868-34.23786l0-33.981876L613.625648 682.709331c-18.87882 0-34.109868-15.231048-34.109868-34.109868s15.231048-34.109868 34.109868-34.109868l34.109868 0L647.735517 580.187738c0-18.814824 15.231048-34.045872 34.109868-34.045872s34.109868 15.231048 34.109868 34.045872l0 34.23786 34.23786 0c18.87882 0 34.109868 15.231048 34.109868 34.109868S769.135929 682.709331 750.257109 682.709331L750.257109 682.709331zM750.257109 682.709331" fill="#3c77a0" p-id="10110"></path></svg>