<?xml version="1.0" standalone="no"?><!DOCTYPE svg PUBLIC "-//W3C//DTD SVG 1.1//EN" "http://www.w3.org/Graphics/SVG/1.1/DTD/svg11.dtd"><svg t="1709801102023" class="icon" viewBox="0 0 1024 1024" version="1.1" xmlns="http://www.w3.org/2000/svg" p-id="8863" data-spm-anchor-id="a313x.search_index.0.i16.32d93a81KyyZqD" width="69" height="69" xmlns:xlink="http://www.w3.org/1999/xlink"><path d="M1013.44 850.56v106.24a60.544 60.544 0 0 1-60.608 60.544H71.872a60.544 60.544 0 0 1-60.608-60.608v-106.24h1002.176z m-190.592-248.192c15.104-0.896 26.624 2.176 34.688 9.28 8 7.104 15.744 15.616 23.36 25.408 7.552 9.792 15.744 18.688 24.64 26.624 8.96 8 21.376 12.032 37.376 12.032h28.032v90.752H52.352V614.592c11.52-2.816 23.68-4.288 36.544-4.288 19.584 0 35.136 3.2 46.72 9.408 11.52 6.208 22.72 13.056 33.28 20.672 10.752 7.552 22.976 14.4 36.736 20.672 13.824 6.208 33.152 9.344 58.112 9.344 24.896 0 47.36-2.944 67.328-8.704a455.68 455.68 0 0 0 56.064-20.032c17.344-7.552 33.344-14.208 48-20.032 14.72-5.76 28.8-8.64 42.112-8.64 21.312 0 35.968 3.584 44.032 10.688 7.872 7.04 15.232 14.592 21.952 22.72l7.232 7.808c5.12 5.12 10.944 10.112 17.536 14.848 9.728 7.104 26.624 10.688 50.688 10.688 24 0 45.312-3.84 64-11.392 18.688-7.552 35.84-16 51.392-25.344 14.784-8.896 29.696-17.536 44.672-25.984l10.752-5.44a113.92 113.92 0 0 1 33.28-9.216z m148.096-169.472v169.472h-30.72c-17.792 0-29.312-4.736-34.688-14.08a157.376 157.376 0 0 1-13.376-31.36 98.688 98.688 0 0 0-16.64-32c-7.552-9.792-22.016-15.552-43.392-17.28a119.232 119.232 0 0 0-57.984 11.264c-17.28 8.448-34.048 18.048-50.048 28.736l-23.872 15.488-23.552 14.528a95.616 95.616 0 0 1-50.048 14.016c-17.728 0-31.104-4.032-40-12.032a235.008 235.008 0 0 1-24.704-25.984l-7.936-9.152a185.792 185.792 0 0 0-18.048-16.896c-9.792-8-24.064-12.032-42.752-12.032-18.624 0-37.312 3.072-56 9.344-18.56 6.144-36.8 13.056-54.72 20.672l-26.496 10.816-26.88 9.92-13.248 4.032a151.104 151.104 0 0 1-38.784 5.248 135.68 135.68 0 0 1-45.44-6.656 514.176 514.176 0 0 1-37.952-15.36 600.832 600.832 0 0 0-41.344-16.64 214.08 214.08 0 0 0-55.424-10.688c-15.36-1.088-30.208 0-44.544 2.816V432.896h918.592zM512.32 9.856c64 0 124.8 6.208 182.144 18.688 57.344 12.416 108.288 30.08 152.768 52.736 44.48 22.656 81.408 49.6 110.784 80.704 29.376 31.168 47.552 65.408 54.72 102.72V348.8H10.56V264.704c7.104-37.312 25.408-71.552 54.72-102.72 29.376-31.104 66.752-58.048 112.128-80.704A652.16 652.16 0 0 1 331.52 28.544 849.408 849.408 0 0 1 512.32 9.856zM296.128 97.92a39.872 39.872 0 0 0-29.312 12.032 39.744 39.744 0 0 0-12.032 29.376c0 11.52 3.968 21.312 12.032 29.312a39.936 39.936 0 0 0 29.312 12.032c11.52 0 21.376-4.032 29.376-12.032a39.872 39.872 0 0 0 11.968-29.312 39.936 39.936 0 0 0-11.968-29.44 39.872 39.872 0 0 0-29.376-11.968z m417.664 0a39.872 39.872 0 0 0-29.312 12.032 39.872 39.872 0 0 0-12.032 29.376c0 11.52 3.968 21.312 12.032 29.312a39.936 39.936 0 0 0 29.312 12.032c11.52 0 21.376-4.032 29.44-12.032a39.936 39.936 0 0 0 11.968-29.312 39.936 39.936 0 0 0-12.032-29.44 39.936 39.936 0 0 0-29.376-11.968zM545.664 15.232a37.76 37.76 0 0 0-28.672 11.968 41.024 41.024 0 0 0-11.328 29.376c0 11.52 3.776 21.312 11.328 29.376a37.888 37.888 0 0 0 28.672 11.968 39.36 39.36 0 0 0 30.016-11.968 41.088 41.088 0 0 0 11.392-29.44 40.96 40.96 0 0 0-11.392-29.312 39.232 39.232 0 0 0-30.016-11.968z" fill="#3c77a0" p-id="8864"></path></svg>