<?xml version="1.0" standalone="no"?><!DOCTYPE svg PUBLIC "-//W3C//DTD SVG 1.1//EN" "http://www.w3.org/Graphics/SVG/1.1/DTD/svg11.dtd"><svg t="1709800573127" class="icon" viewBox="0 0 1024 1024" version="1.1" xmlns="http://www.w3.org/2000/svg" p-id="1640" width="69" height="69" xmlns:xlink="http://www.w3.org/1999/xlink"><path d="M633.863 381.08l0.888-11.576H361.339l0.888 11.576-1.366 4.636c-0.124 0.412-0.266 0.896-0.389 1.318h275.147c-0.129-0.421-0.266-0.906-0.395-1.318l-1.361-4.636M357.635 321.292h280.83l1.343-17.536H356.282l1.353 17.536" fill="#3c77a0" p-id="1641"></path><path d="M651.717 369.504v-48.212h-13.252l-3.714 48.212h16.966M344.431 369.504h16.908l-3.704-48.212h-13.204v48.212" fill="#3c77a0" p-id="1642"></path><path d="M629.682 1024H376.656c-30.697 0-56.306-13.748-76.114-40.861-15.087-20.652-26.8-49.542-34.815-85.869-13.829-62.688-13.829-134.052-13.829-168.348 0-80.735 55.621-303.968 68.621-355.035l-4.4-65.528c-19.953-13.833-51.437-44.212-51.437-98.109 0-17.383 3.535-78.321 49.022-132.612 19.881-23.729 44.798-42.361 74.057-55.381C420.95 7.488 459.771 0 503.144 0c43.385 0 82.216 7.488 115.412 22.255 29.266 13.019 54.188 31.652 74.072 55.381 45.492 54.288 49.027 115.229 49.027 132.613 0 53.894-31.482 84.275-51.433 98.109l-4.403 65.53c13 51.076 68.615 274.344 68.615 355.034 0 34.296 0 105.66-13.829 168.347-8.013 36.327-19.726 65.218-34.812 85.87-19.808 27.113-45.415 40.861-76.111 40.861zM503.144 34.777c-71.77 0-126.538 21.934-162.783 65.194-37.952 45.298-40.902 95.86-40.902 110.277 0 43.886 29.488 65.782 42.167 73.159l7.985 4.647 5.979 89.048-0.688 2.694c-6.983 27.336-68.227 269.377-68.227 349.126 0 33.065 0 101.87 13.013 160.856 14.558 65.987 40.453 99.445 76.967 99.445h253.026c36.512 0 62.407-33.458 76.963-99.445 13.012-58.986 13.012-127.791 13.012-160.856 0-79.704-61.239-321.786-68.222-349.127l-0.688-2.694 5.983-89.046 7.984-4.646c12.677-7.378 42.163-29.275 42.163-73.16 0-14.418-2.95-64.982-40.906-110.276-36.249-43.261-91.032-65.196-162.826-65.196z" fill="#3c77a0" p-id="1643"></path><path d="M651.717 321.292v48.212h-16.966l-0.888 11.576 1.362 4.636c0.129 0.412 0.266 0.896 0.395 1.318h33.665v-83.278h-29.476l-1.343 17.536h13.251M362.227 381.08l-0.888-11.576h-16.908v-48.212h13.204l-1.353-17.536h-29.414v83.278h33.605c0.123-0.421 0.265-0.906 0.389-1.318l1.365-4.636M317.786 733.078c0 4.06-0.067 8.876-0.152 14.261-0.66 45.342-1.889 129.73 31.835 163.882 10.097 10.223 22.517 15.409 36.917 15.409h223.319c14.399 0 26.815-5.186 36.911-15.409 33.724-34.151 32.499-118.539 31.835-163.882-0.075-5.385-0.147-10.201-0.147-14.261 0-61.734-54.158-252.085-56.458-260.16l-1.817-6.362H376.066l-1.817 6.362c-2.305 8.075-56.463 198.426-56.463 260.16z m71.565-248.992h217.388c9.56 34.155 53.996 195.792 53.996 248.991 0 4.137 0.076 9.033 0.152 14.518 0.579 39.725 1.784 122.396-26.778 151.323-6.76 6.845-14.75 10.177-24.404 10.177H386.386c-9.661 0-17.64-3.332-24.406-10.177-28.562-28.927-27.362-111.598-26.778-151.323 0.075-5.485 0.147-10.381 0.147-14.518 0.001-53.189 44.437-214.836 54.002-248.991z m0 0M381.633 174.86c3.876 0 8.008-0.332 12.268-0.991 9.465-1.453 31.237-6.316 29.127-20.003-0.793-5.157-5.181-11.306-21.55-11.306-3.866 0-7.994 0.328-12.254 0.987-6.881 1.058-13.323 2.865-18.158 5.085-10.252 4.702-11.619 10.714-10.969 14.912 0.792 5.163 5.176 11.316 21.536 11.316M498.012 152.134c9.574 0 31.84-1.494 31.84-15.339 0-13.853-22.265-15.347-31.84-15.347-9.57 0-31.84 1.494-31.84 15.347 0.001 13.845 22.271 15.339 31.84 15.339M583.981 168.802c4.835 2.215 11.282 4.018 18.152 5.067 4.256 0.655 8.374 0.986 12.232 0.986 16.387 0 20.78-6.158 21.572-11.325 0.646-4.213-0.725-10.215-10.983-14.916-4.834-2.212-11.282-4.014-18.152-5.067-4.251-0.655-8.365-0.987-12.221-0.987-16.402 0-20.791 6.159-21.578 11.326-0.651 4.207 0.726 10.214 10.978 14.916" fill="#3c77a0" p-id="1644"></path></svg>