<?xml version="1.0" standalone="no"?><!DOCTYPE svg PUBLIC "-//W3C//DTD SVG 1.1//EN" "http://www.w3.org/Graphics/SVG/1.1/DTD/svg11.dtd"><svg t="1709801372021" class="icon" viewBox="0 0 1024 1024" version="1.1" xmlns="http://www.w3.org/2000/svg" p-id="11501" width="69" height="69" xmlns:xlink="http://www.w3.org/1999/xlink"><path d="M722.640178 639.36874c-71.54029 0-129.351658 58.37347-129.351658 130.61213s57.913568 130.61213 129.453858 130.612129 129.453858-58.390503 129.453859-130.612129-57.981702-130.61213-129.556059-130.61213z m0 229.014096c-53.689284-0.476935-97.090394-44.286846-97.516229-98.4701 0-53.706318 44.286846-98.487133 97.567329-98.487133s97.567329 44.797848 97.567329 98.487133-44.389047 98.401966-97.618429 98.401966z m244.463391 106.9357V687.862837c-0.238468-80.60206-54.029952-152.448952-130.799497-174.728642l-5.535856-1.703341v-108.059905c0-12.349217-2.418743-19.997214-8.3123-26.316606-5.297388-5.586956-13.234954-8.1079-25.550104-8.193067-46.96109-0.476935-95.472221-0.408802-140.62777 0.221434h-1.107171c-8.857369 0.664303-18.004306 1.311572-24.119298 7.869432s-6.183125 12.434384-6.149058 24.988002v109.49071l-5.60399 1.584107c-77.229447 21.956056-130.952798 93.819981-130.66323 174.779742v281.017073c0 18.617509 0 33.317335 11.616781 44.440147 11.139845 10.748077 24.374799 11.156879 40.40323 10.56071h372.741945c24.851734 0.153301 33.811304-0.272534 44.15058-10.475543 9.81124-9.453538 9.709039-22.109356 9.572772-38.086688zM653.024662 432.770602c0-8.516701 1.090138-17.459237 8.891436-24.970968s16.386133-8.090866 24.783601-8.090866h83.123003c5.75729 0 14.444325 0 23.352795 7.903499 9.215071 8.056799 9.215071 17.953206 9.215071 25.158335v79.103121h-149.365906z m273.607543 502.12767c0 14.427292 0.272534 30.115055-13.013519 39.568594-10.032674 7.136996-23.846763 8.244167-36.332248 8.244167h-0.545069c-97.294795 0-170.538425 0.1022-220.361127 0.1022-53.382683 0-76.531077 0-79.90369-0.1022-11.105778-0.306601-28.565016 0.545069-36.741049-8.124933-10.509609-11.173912-10.049707-16.897135-10.969512-39.670795v-245.280994c0.204401-78.030016 63.296123-141.734942 140.661838-141.990443h116.474405c77.399781 0.170334 140.542603 63.841192 140.729971 141.956376zM97.803877 540.234338c0.425835-111.670986 85.40548-203.75356 193.346151-214.280203h45.990186c89.323162 8.738135 164.661901 72.902962 187.265226 162.004691v0.204401a14.001457 14.001457 0 0 0 4.650119 1.584106 36.110813 36.110813 0 0 0 20.201616-3.014912c13.626722-6.114991 16.641634-14.308058 15.125661-19.486212v-0.170334a256.506007 256.506007 0 0 0-165.547638-180.7244 52.633213 52.633213 0 0 0 1.498939-12.178883v-80.261392a51.696376 51.696376 0 0 0-51.696376-51.917811h-12.945386v-95.046385a18.617509 18.617509 0 0 0-0.289568-3.134146h45.394018a21.751655 21.751655 0 0 0 15.568529-6.285326 22.143423 22.143423 0 0 0 6.55786-15.56853 21.785722 21.785722 0 0 0-22.143423-21.956055H225.469228c-31.034859 0-74.946971 16.726801-97.499195 53.110149a22.484091 22.484091 0 0 0-0.476936 22.518158 22.143423 22.143423 0 0 0 19.196645 11.480513 22.432991 22.432991 0 0 0 19.009277-10.782144c12.826152-20.899985 40.539498-32.499732 59.770209-32.499732h56.533863a19.281812 19.281812 0 0 0-0.289568 3.134146v95.029352h-12.945386a51.747477 51.747477 0 0 0-51.491976 51.917811v80.176225a52.360679 52.360679 0 0 0 2.555011 15.994365A256.625241 256.625241 0 0 0 56.77041 528.992292v405.991147a83.208171 83.208171 0 0 0 74.946971 82.612002h266.249113c7.750198-1.839607 17.135603-7.35843 15.943265-24.017098-0.90277-12.451417-10.220041-16.743835-17.527371-18.22574H156.398781a38.001521 38.001521 0 0 1-13.183853-1.362673c-10.679943-3.321513-23.846763-10.867311-31.869496-20.303815-11.259079-13.337154-14.342125-32.193131-13.541555-46.773723z m172.037364-338.743274a6.080925 6.080925 0 0 1 6.046858-6.097958v-0.221434h65.152764a6.046858 6.046858 0 0 1 4.326485 1.70334 6.132025 6.132025 0 0 1 1.788507 4.343518v65.680799a6.132025 6.132025 0 0 1-1.788507 4.343518 6.046858 6.046858 0 0 1-4.326485 1.70334h-12.775051c-3.849549-0.170334-7.699098-0.289568-11.582714-0.289568h-4.650119c-4.019883 0-8.005699 0.1022-11.923382 0.289568h-24.221498a6.097958 6.097958 0 0 1-6.046858-6.097958z" fill="#3c77a0" p-id="11502"></path></svg>