<?xml version="1.0" encoding="utf-8"?>
<!-- Generator: Adobe Illustrator 16.0.0, SVG Export Plug-In . SVG Version: 6.00 Build 0)  -->
<!DOCTYPE svg PUBLIC "-//W3C//DTD SVG 1.1//EN" "http://www.w3.org/Graphics/SVG/1.1/DTD/svg11.dtd">
<svg version="1.1" id="圖層_1" xmlns="http://www.w3.org/2000/svg" xmlns:xlink="http://www.w3.org/1999/xlink" x="0px" y="0px"
	 width="72px" height="72px" viewBox="0 0 72 72" enable-background="new 0 0 72 72" xml:space="preserve">
<g>
	<path fill="#3c77a0" d="M66.001,65.999H5.999v-36h18C25.657,29.999,27,28.654,27,27c0-1.659-1.343-2.999-3.001-2.999h-21
		C1.343,24.001,0,25.341,0,27v42.001C0,70.657,1.343,72,2.999,72h66.002C70.657,72,72,70.657,72,69.001V27
		c0-1.659-1.343-2.999-2.999-2.999h-21C46.343,24.001,45,25.341,45,27c0,1.654,1.343,2.999,3.001,2.999h18V65.999"/>
	<path fill="#3c77a0" d="M38.999,42.001V2.999C38.999,1.343,37.657,0,36,0c-1.657,0-3.001,1.343-3.001,2.999v39.002
		C32.999,43.657,34.343,45,36,45C37.657,45,38.999,43.657,38.999,42.001"/>
	<g>
		<path fill="#3c77a0" d="M33.878,0.879l-12,11.999c-1.171,1.174-1.171,3.072,0,4.243c1.171,1.171,3.071,1.171,4.243,0L38.12,5.122
			c1.174-1.174,1.174-3.072,0-4.243C36.949-0.292,35.049-0.292,33.878,0.879"/>
		<path fill="#3c77a0" d="M33.878,5.122l12,11.999c1.171,1.171,3.069,1.171,4.243,0c1.171-1.171,1.171-3.069,0-4.243L38.12,0.879
			c-1.171-1.171-3.071-1.171-4.242,0C32.706,2.05,32.706,3.948,33.878,5.122"/>
	</g>
</g>
</svg>
