<?xml version="1.0" encoding="utf-8"?>
<!-- Generator: Adobe Illustrator 26.5.0, SVG Export Plug-In . SVG Version: 6.00 Build 0)  -->
<svg version="1.1" id="圖層_1" xmlns="http://www.w3.org/2000/svg" xmlns:xlink="http://www.w3.org/1999/xlink" x="0px" y="0px"
	 viewBox="0 0 517 150" style="enable-background:new 0 0 517 150;" xml:space="preserve">
<style type="text/css">
	.st0{fill:#FFFFFF;}
</style>
<g id="圖層_1_1_">
</g>
<g>
	<path class="st0" d="M436.3,103.2h-21.1l-17.7-46.1v46.1h-21.3V1.6h21.3l16.4,49.8V1.6h22.4V103.2z"/>
	<path class="st0" d="M60.7,83.4V67.6h22.8v36H23.5V1.6h59.9v37.3H60.7V22H46.2v61.4H60.7z"/>
	<path class="st0" d="M94.1,1.6h22.8V40h14.5V1.6H154v101.9h-22.6V67.4h-14.5v36.1H94.1V1.6z"/>
	<path class="st0" d="M164.6,1.6h22.8v81.8h14.4V1.6h22.8v101.9h-59.9V1.6z"/>
	<path class="st0" d="M446.8,103.5V1.6h59.9v19.1h-37v62.7h14.5V37.6h22.5v66H446.8z"/>
	<path class="st0" d="M305.6,1h60.1v102.2h-60.1V1z M342.8,83.4V20.9h-14.4v62.4H342.8z"/>
	<path class="st0" d="M293.9,32.3l-17-30.7h-18.7h-9.8h-12.1v19.7v64.3v0v17.8h12.1h9.8h19.9h0.2h15.6V32.3z M274,83.4h-15.9v-62
		h7.6l8.3,15V83.4z"/>
	<g>
		<path class="st0" d="M28.4,135.8v7.5h-5v-20.8h6.7c1.7,0,3,0.1,4,0.4c1,0.3,1.8,0.7,2.4,1.3c1.1,1.1,1.7,2.7,1.7,4.9
			c0,2.4-0.7,4.1-2,5.2c-0.6,0.5-1.4,0.9-2.3,1.1c-0.9,0.2-2.2,0.3-3.7,0.3H28.4z M28.3,132.8h1.8c1.2,0,2-0.3,2.5-0.9
			c0.4-0.6,0.6-1.5,0.6-2.8c0-1.3-0.3-2.2-0.8-2.8c-0.4-0.5-1.2-0.7-2.2-0.7h-1.9V132.8z"/>
		<path class="st0" d="M40.6,143.4v-15.1h3.6l0.6,1.2c0.4-0.6,0.9-1,1.4-1.2c0.5-0.2,1.1-0.3,1.9-0.3c1.1,0,2.1,0.3,3.3,0.9l-2.1,3
			c-0.8-0.6-1.5-0.8-2.1-0.8c-0.7,0-1.2,0.4-1.4,1.1c-0.3,0.8-0.4,2.1-0.4,3.9v7.3H40.6z"/>
		<path class="st0" d="M57.5,136.7v1.1c0,1.1,0.2,1.9,0.5,2.3c0.3,0.4,0.9,0.6,1.7,0.6c0.7,0,1.2-0.2,1.6-0.5
			c0.3-0.3,0.5-0.8,0.5-1.6h4.4c0,1.5-0.3,2.5-1,3.2c-1,1.2-2.9,1.7-5.6,1.7c-2.6,0-4.4-0.6-5.4-1.8c-0.9-1-1.4-2.6-1.4-4.8v-2.4
			c0-2.5,0.6-4.3,1.8-5.4c1.1-0.9,2.7-1.3,5-1.3c2.6,0,4.4,0.6,5.5,1.8c0.9,1,1.4,2.7,1.4,4.9v2H57.5z M57.5,134.1h4.4v-0.6
			c0-1-0.2-1.8-0.5-2.2c-0.3-0.4-0.9-0.6-1.8-0.6c-0.8,0-1.4,0.2-1.7,0.6c-0.3,0.4-0.4,1.1-0.4,2.2V134.1z"/>
		<path class="st0" d="M68.9,138.7h4.4c0.1,0.8,0.3,1.3,0.6,1.6c0.4,0.3,1,0.5,1.9,0.5c1.6,0,2.3-0.6,2.3-1.7c0-0.6-0.2-1.1-0.7-1.3
			c-0.2-0.1-1-0.3-2.4-0.6c-1.4-0.3-2.3-0.5-2.8-0.7c-0.5-0.2-1-0.4-1.4-0.7c-1-0.7-1.4-1.8-1.4-3.3c0-1.5,0.6-2.6,1.7-3.4
			c1-0.7,2.5-1,4.3-1c2.8,0,4.7,0.7,5.6,2c0.4,0.6,0.7,1.5,0.7,2.7h-4.4c0-1.2-0.6-1.7-1.9-1.7c-1.2,0-1.8,0.5-1.8,1.5
			c0,0.5,0.2,0.9,0.5,1.2c0.4,0.3,1,0.5,2,0.7c1.6,0.3,2.7,0.5,3.2,0.7c0.6,0.2,1,0.4,1.4,0.7c1,0.7,1.6,1.8,1.6,3.4
			c0,3.1-2.3,4.6-6.9,4.6c-3.1,0-5.1-0.7-6.1-2.2C69.2,140.9,68.9,140,68.9,138.7z"/>
		<path class="st0" d="M84.8,138.7h4.4c0.1,0.8,0.3,1.3,0.6,1.6c0.4,0.3,1,0.5,1.9,0.5c1.6,0,2.3-0.6,2.3-1.7c0-0.6-0.2-1.1-0.7-1.3
			c-0.2-0.1-1-0.3-2.4-0.6c-1.4-0.3-2.3-0.5-2.8-0.7c-0.5-0.2-1-0.4-1.4-0.7c-1-0.7-1.4-1.8-1.4-3.3c0-1.5,0.6-2.6,1.7-3.4
			c1-0.7,2.5-1,4.3-1c2.8,0,4.7,0.7,5.6,2c0.4,0.6,0.7,1.5,0.7,2.7h-4.4c0-1.2-0.6-1.7-1.9-1.7c-1.2,0-1.8,0.5-1.8,1.5
			c0,0.5,0.2,0.9,0.5,1.2c0.4,0.3,1,0.5,2,0.7c1.6,0.3,2.7,0.5,3.2,0.7c0.6,0.2,1,0.4,1.4,0.7c1,0.7,1.6,1.8,1.6,3.4
			c0,3.1-2.3,4.6-6.9,4.6c-3.1,0-5.1-0.7-6.1-2.2C85.1,140.9,84.9,140,84.8,138.7z"/>
		<path class="st0" d="M101,128.3h4.7v9.1c0,1.2,0.1,2.1,0.4,2.5c0.3,0.5,0.7,0.7,1.4,0.7c0.7,0,1.2-0.2,1.5-0.7
			c0.3-0.5,0.4-1.3,0.4-2.6v-9h4.7v15.1h-3.5l-0.3-1.2c-0.6,0.6-1.2,1-1.8,1.2c-0.6,0.2-1.3,0.3-2.2,0.3c-1.1,0-2.1-0.2-2.9-0.6
			c-0.8-0.4-1.4-0.9-1.8-1.6c-0.4-0.7-0.6-1.9-0.6-3.6V128.3z"/>
		<path class="st0" d="M117.6,143.4v-15.1h3.6l0.6,1.2c0.4-0.6,0.9-1,1.4-1.2c0.5-0.2,1.1-0.3,1.9-0.3c1.1,0,2.1,0.3,3.3,0.9l-2.1,3
			c-0.7-0.6-1.5-0.8-2.1-0.8c-0.7,0-1.2,0.4-1.4,1.1c-0.3,0.8-0.4,2.1-0.4,3.9v7.3H117.6z"/>
		<path class="st0" d="M134.5,136.7v1.1c0,1.1,0.2,1.9,0.5,2.3c0.3,0.4,0.9,0.6,1.7,0.6c0.7,0,1.2-0.2,1.6-0.5
			c0.3-0.3,0.5-0.8,0.5-1.6h4.4c0,1.5-0.3,2.5-1,3.2c-1,1.2-2.9,1.7-5.6,1.7c-2.6,0-4.4-0.6-5.4-1.8c-0.9-1-1.4-2.6-1.4-4.8v-2.4
			c0-2.5,0.6-4.3,1.8-5.4c1.1-0.9,2.7-1.3,5-1.3c2.6,0,4.4,0.6,5.5,1.8c0.9,1,1.4,2.7,1.4,4.9v2H134.5z M134.5,134.1h4.4v-0.6
			c0-1-0.2-1.8-0.5-2.2c-0.3-0.4-0.9-0.6-1.8-0.6c-0.8,0-1.4,0.2-1.7,0.6c-0.3,0.4-0.4,1.1-0.4,2.2V134.1z"/>
		<path class="st0" d="M153.4,143.4v-20.8h13.1v3.1h-8.1v5.8h6.7v3.1h-6.7v8.8H153.4z"/>
		<path class="st0" d="M168.8,137.5v-3.4c0-2.3,0.6-4,1.8-4.9c1.1-0.8,2.7-1.2,5-1.2c2.6,0,4.4,0.5,5.4,1.6c0.9,1,1.4,2.5,1.4,4.5
			v3.4c0,2.3-0.6,4-1.8,4.9c-1.1,0.8-2.7,1.3-5,1.3c-2.6,0-4.4-0.6-5.5-1.7C169.2,141.1,168.8,139.6,168.8,137.5z M173.5,137.8
			c0,1.2,0.2,1.9,0.5,2.3c0.3,0.4,0.8,0.6,1.7,0.6c0.8,0,1.4-0.2,1.6-0.6c0.3-0.4,0.4-1.2,0.4-2.3v-4c0-1.1-0.1-1.9-0.4-2.3
			c-0.3-0.4-0.8-0.6-1.6-0.6c-0.8,0-1.4,0.2-1.7,0.6c-0.3,0.4-0.4,1.2-0.4,2.3V137.8z"/>
		<path class="st0" d="M185.8,143.4v-15.1h3.6l0.6,1.2c0.4-0.6,0.9-1,1.4-1.2c0.5-0.2,1.1-0.3,1.9-0.3c1.1,0,2.1,0.3,3.3,0.9l-2.1,3
			c-0.7-0.6-1.5-0.8-2.1-0.8c-0.7,0-1.2,0.4-1.4,1.1c-0.3,0.8-0.4,2.1-0.4,3.9v7.3H185.8z"/>
		<path class="st0" d="M198.9,143.4v-15.1h3.5l0.3,1.2c0.6-0.6,1.2-1,1.8-1.2c0.6-0.2,1.4-0.3,2.3-0.3c2,0,3.4,0.5,4.3,1.6
			c0.5-0.6,1.1-1,1.7-1.2c0.6-0.2,1.4-0.4,2.3-0.4c1.1,0,2.1,0.2,3,0.6c0.8,0.4,1.5,0.9,1.8,1.6c0.4,0.7,0.6,1.9,0.6,3.5v9.7h-4.7
			v-9.2c0-1.2-0.1-2-0.4-2.5c-0.3-0.5-0.8-0.7-1.5-0.7c-0.7,0-1.2,0.2-1.5,0.7c-0.3,0.5-0.4,1.3-0.4,2.5v9.2h-4.7v-9.2
			c0-1.2-0.1-2.1-0.4-2.5c-0.3-0.4-0.7-0.7-1.4-0.7c-0.7,0-1.3,0.2-1.6,0.7c-0.3,0.5-0.4,1.3-0.4,2.6v9H198.9z"/>
		<path class="st0" d="M224.3,126.2v-3.8h4.7v3.8H224.3z M224.3,143.4v-15.1h4.7v15.1H224.3z"/>
		<path class="st0" d="M232.6,143.4v-15.1h3.5l0.3,1.2c0.6-0.6,1.2-1,1.8-1.2c0.6-0.2,1.4-0.3,2.4-0.3c1.2,0,2.2,0.2,3,0.6
			c0.9,0.4,1.5,0.9,1.9,1.6c0.4,0.7,0.6,1.9,0.6,3.5v9.7h-4.7v-9.2c0-1.2-0.1-2-0.4-2.5c-0.3-0.5-0.8-0.7-1.6-0.7s-1.3,0.2-1.6,0.7
			c-0.3,0.5-0.4,1.3-0.4,2.6v9H232.6z"/>
		<path class="st0" d="M258.4,143c-0.9,0.5-2,0.7-3.1,0.7c-2.1,0-3.7-0.6-4.5-1.8c-0.7-1-1.1-2.6-1.1-4.8v-3.3
			c0-2.2,0.5-3.7,1.5-4.6c0.9-0.8,2.2-1.2,3.9-1.2c1.6,0,2.9,0.5,4,1.4l0.5-1h3.6v15.3c0,2.5-0.6,4.2-1.9,5.3
			c-1.1,0.9-2.8,1.4-5,1.4c-2.6,0-4.4-0.7-5.2-1.9c-0.4-0.6-0.6-1.5-0.6-2.7h4.2c0,0.7,0.1,1.2,0.4,1.4c0.3,0.3,0.7,0.4,1.4,0.4
			c0.8,0,1.4-0.2,1.7-0.7c0.3-0.5,0.5-1.3,0.5-2.6V143z M258.4,134.4c0-1.2-0.2-2-0.5-2.5c-0.3-0.5-0.9-0.8-1.6-0.8
			c-0.7,0-1.2,0.2-1.5,0.6c-0.3,0.4-0.4,1-0.4,1.9v3.9c0,1.1,0.1,2,0.4,2.5c0.3,0.5,0.8,0.7,1.5,0.7c1.4,0,2.1-1.1,2.1-3.3V134.4z"
			/>
		<path class="st0" d="M273.4,143.4v-20.8h4.6l5.1,11.3l5.1-11.3h4.7v20.8H288v-12.5l-3.4,8.1h-3.2l-3.3-8.1v12.5H273.4z"/>
		<path class="st0" d="M304.9,134.3v-0.5c0-1.1-0.1-1.9-0.4-2.3c-0.3-0.4-0.8-0.6-1.6-0.6c-0.7,0-1.2,0.1-1.5,0.4
			c-0.3,0.3-0.4,0.8-0.4,1.5h-4.4c0.1-1.5,0.4-2.5,1-3.2c1.1-1.1,2.9-1.7,5.4-1.7c2.5,0,4.2,0.6,5.2,1.7c0.9,0.9,1.4,2.4,1.4,4.5
			v9.2h-3.7l-0.3-0.8c-0.5,0.4-1,0.7-1.6,0.9c-0.6,0.2-1.4,0.3-2.3,0.3c-2.1,0-3.7-0.4-4.5-1.3c-0.8-0.7-1.2-1.9-1.2-3.4
			c0-1.9,0.5-3.1,1.6-3.8c0.9-0.6,2.5-0.9,4.7-0.9H304.9z M304.9,136.8h-1.2c-1.1,0-1.8,0.2-2.2,0.5c-0.4,0.3-0.7,0.9-0.7,1.7
			c0,0.7,0.1,1.2,0.4,1.5c0.3,0.3,0.8,0.4,1.6,0.4c0.7,0,1.3-0.2,1.6-0.5c0.3-0.3,0.4-0.9,0.4-1.7V136.8z"/>
		<path class="st0" d="M321.6,138.7h4.4c-0.1,1.5-0.4,2.6-1,3.3c-1,1.1-2.9,1.7-5.5,1.7c-2.4,0-4.2-0.6-5.2-1.7
			c-0.9-1-1.3-2.5-1.3-4.5v-3.4c0-2.3,0.6-3.9,1.8-4.9c1-0.9,2.6-1.3,4.8-1.3c2.8,0,4.7,0.7,5.6,2.2c0.4,0.6,0.7,1.6,0.7,3h-4.4
			c0-1.5-0.6-2.2-1.9-2.2c-0.7,0-1.2,0.2-1.5,0.7c-0.3,0.4-0.4,1.2-0.4,2.3v3.9c0,1.1,0.1,1.9,0.4,2.3c0.3,0.4,0.8,0.7,1.5,0.7
			C320.9,140.8,321.5,140.1,321.6,138.7z"/>
		<path class="st0" d="M328.7,143.4v-20.8h4.7v6.2c0.8-0.5,1.9-0.8,3.3-0.8c1.2,0,2.2,0.2,3,0.6c0.9,0.4,1.5,0.9,1.9,1.6
			c0.4,0.7,0.6,1.9,0.6,3.5v9.7h-4.7v-9.2c0-1.2-0.1-2-0.4-2.5c-0.3-0.5-0.8-0.7-1.6-0.7c-0.8,0-1.4,0.2-1.6,0.7
			c-0.3,0.5-0.4,1.3-0.4,2.6v9H328.7z"/>
		<path class="st0" d="M345.9,126.2v-3.8h4.7v3.8H345.9z M345.9,143.4v-15.1h4.7v15.1H345.9z"/>
		<path class="st0" d="M354.3,143.4v-15.1h3.5l0.3,1.2c0.6-0.6,1.2-1,1.8-1.2c0.6-0.2,1.4-0.3,2.4-0.3c1.2,0,2.2,0.2,3,0.6
			c0.9,0.4,1.5,0.9,1.9,1.6c0.4,0.7,0.6,1.9,0.6,3.5v9.7h-4.7v-9.2c0-1.2-0.1-2-0.4-2.5c-0.3-0.5-0.8-0.7-1.6-0.7
			c-0.8,0-1.3,0.2-1.6,0.7c-0.3,0.5-0.4,1.3-0.4,2.6v9H354.3z"/>
		<path class="st0" d="M375.9,136.7v1.1c0,1.1,0.2,1.9,0.5,2.3c0.3,0.4,0.9,0.6,1.7,0.6c0.7,0,1.2-0.2,1.6-0.5
			c0.3-0.3,0.5-0.8,0.5-1.6h4.4c0,1.5-0.3,2.5-1,3.2c-1,1.2-2.9,1.7-5.6,1.7c-2.6,0-4.4-0.6-5.4-1.8c-0.9-1-1.4-2.6-1.4-4.8v-2.4
			c0-2.5,0.6-4.3,1.8-5.4c1.1-0.9,2.7-1.3,5-1.3c2.6,0,4.4,0.6,5.5,1.8c0.9,1,1.4,2.7,1.4,4.9v2H375.9z M375.9,134.1h4.4v-0.6
			c0-1-0.2-1.8-0.5-2.2c-0.3-0.4-0.9-0.6-1.8-0.6c-0.8,0-1.4,0.2-1.7,0.6c-0.3,0.4-0.4,1.1-0.4,2.2V134.1z"/>
		<path class="st0" d="M393.3,137.1h4.6c0,1.3,0.3,2.3,0.8,2.8c0.5,0.5,1.2,0.7,2.1,0.7c1.1,0,1.8-0.2,2.3-0.7
			c0.5-0.5,0.7-1.3,0.7-2.3c0-0.9-0.3-1.6-0.8-2.1c-0.3-0.2-0.6-0.4-0.9-0.5c-0.3-0.1-1.1-0.3-2.5-0.7c-2.2-0.5-3.8-1.3-4.7-2.4
			c-0.8-0.9-1.2-2.1-1.2-3.6c0-2.1,0.7-3.7,2-4.7c1.2-0.9,2.8-1.3,5-1.3c3.1,0,5.2,0.9,6.3,2.7c0.5,0.8,0.8,2,0.9,3.5h-4.6
			c-0.1-1.2-0.3-2.1-0.7-2.5c-0.3-0.5-1-0.7-1.8-0.7c-1.6,0-2.4,1-2.4,2.9c0,0.8,0.3,1.4,0.8,1.9c0.5,0.4,1.5,0.9,2.8,1.2
			c1.4,0.3,2.4,0.6,2.9,0.8c0.5,0.2,1,0.4,1.5,0.7c1.4,0.9,2.1,2.4,2.1,4.6c0,4.1-2.6,6.2-7.7,6.2c-3.3,0-5.5-0.9-6.7-2.8
			C393.6,140.1,393.4,138.8,393.3,137.1z"/>
		<path class="st0" d="M411.6,137.5v-3.4c0-2.3,0.6-4,1.8-4.9c1.1-0.8,2.7-1.2,5-1.2c2.6,0,4.4,0.5,5.4,1.6c0.9,1,1.4,2.5,1.4,4.5
			v3.4c0,2.3-0.6,4-1.8,4.9c-1.1,0.8-2.7,1.3-5,1.3c-2.6,0-4.4-0.6-5.5-1.7C412.1,141.1,411.6,139.6,411.6,137.5z M416.3,137.8
			c0,1.2,0.2,1.9,0.5,2.3c0.3,0.4,0.8,0.6,1.7,0.6c0.8,0,1.3-0.2,1.6-0.6c0.3-0.4,0.4-1.2,0.4-2.3v-4c0-1.1-0.1-1.9-0.4-2.3
			c-0.3-0.4-0.8-0.6-1.6-0.6c-0.8,0-1.4,0.2-1.7,0.6c-0.3,0.4-0.4,1.2-0.4,2.3V137.8z"/>
		<path class="st0" d="M428.7,122.6h4.7v14.9c0,1.2,0.2,2,0.5,2.4c0.4,0.4,1.1,0.6,2.2,0.6h0.3v2.9h-0.6c-2,0-3.5-0.2-4.5-0.5
			c-1-0.3-1.7-0.9-2.1-1.8c-0.4-0.8-0.6-2.2-0.6-4V122.6z"/>
		<path class="st0" d="M438.2,128.3h4.7v9.1c0,1.2,0.1,2.1,0.4,2.5c0.3,0.5,0.7,0.7,1.4,0.7c0.7,0,1.2-0.2,1.5-0.7
			c0.3-0.5,0.4-1.3,0.4-2.6v-9h4.7v15.1h-3.5l-0.3-1.2c-0.6,0.6-1.2,1-1.8,1.2c-0.6,0.2-1.3,0.3-2.2,0.3c-1.1,0-2.1-0.2-2.9-0.6
			c-0.8-0.4-1.4-0.9-1.8-1.6c-0.4-0.7-0.6-1.9-0.6-3.6V128.3z"/>
		<path class="st0" d="M455.5,131.2h-1.9v-2.9h1.9l0.3-4.3h4.5v4.3h3.1v2.9h-3.1v7c0,0.9,0.1,1.5,0.4,1.8c0.3,0.3,0.9,0.4,1.8,0.4
			h0.8v3h-1.3c-1.9,0-3.2-0.1-4.1-0.4c-0.9-0.3-1.5-0.8-1.8-1.5c-0.3-0.7-0.5-1.9-0.5-3.6V131.2z"/>
		<path class="st0" d="M466.2,126.2v-3.8h4.7v3.8H466.2z M466.2,143.4v-15.1h4.7v15.1H466.2z"/>
		<path class="st0" d="M474.4,137.5v-3.4c0-2.3,0.6-4,1.8-4.9c1.1-0.8,2.7-1.2,5-1.2c2.6,0,4.4,0.5,5.4,1.6c0.9,1,1.4,2.5,1.4,4.5
			v3.4c0,2.3-0.6,4-1.8,4.9c-1.1,0.8-2.7,1.3-5,1.3c-2.6,0-4.4-0.6-5.5-1.7C474.9,141.1,474.4,139.6,474.4,137.5z M479.1,137.8
			c0,1.2,0.2,1.9,0.5,2.3c0.3,0.4,0.8,0.6,1.7,0.6c0.8,0,1.3-0.2,1.6-0.6c0.3-0.4,0.4-1.2,0.4-2.3v-4c0-1.1-0.1-1.9-0.4-2.3
			c-0.3-0.4-0.8-0.6-1.6-0.6c-0.8,0-1.4,0.2-1.7,0.6c-0.3,0.4-0.4,1.2-0.4,2.3V137.8z"/>
		<path class="st0" d="M491.5,143.4v-15.1h3.5l0.3,1.2c0.6-0.6,1.2-1,1.8-1.2c0.6-0.2,1.4-0.3,2.4-0.3c1.2,0,2.2,0.2,3,0.6
			c0.9,0.4,1.5,0.9,1.9,1.6c0.4,0.7,0.6,1.9,0.6,3.5v9.7h-4.7v-9.2c0-1.2-0.1-2-0.4-2.5c-0.3-0.5-0.8-0.7-1.6-0.7
			c-0.8,0-1.3,0.2-1.6,0.7c-0.3,0.5-0.4,1.3-0.4,2.6v9H491.5z"/>
	</g>
</g>
</svg>
